<svg xmlns="http://www.w3.org/2000/svg" width="440.39" height="108.61" viewBox="0 0 440.39 108.61">
  <g id="blockscan-logo-dark" transform="translate(-246.455 -232)">
    <path id="Blockscan" d="M27.48-21.84a10.276,10.276,0,0,1,6.15,3.63,10.3,10.3,0,0,1,2.31,6.69,10.57,10.57,0,0,1-3.57,8.43Q28.8,0,22.02,0H3.84V-42.36H21.66q6.42,0,9.87,2.82a9.656,9.656,0,0,1,3.45,7.92,9.875,9.875,0,0,1-2.07,6.48A9.627,9.627,0,0,1,27.48-21.84ZM12.3-24.6h7.62a7.249,7.249,0,0,0,4.83-1.41,5.034,5.034,0,0,0,1.65-4.05,5.173,5.173,0,0,0-1.62-4.08,7.33,7.33,0,0,0-4.98-1.44H12.3ZM20.34-6.9A7.971,7.971,0,0,0,25.5-8.37a5.217,5.217,0,0,0,1.8-4.29,5.353,5.353,0,0,0-1.83-4.35,7.875,7.875,0,0,0-5.19-1.53H12.3V-6.9Zm30-37.5V0H41.88V-44.4ZM73.38-33.66a18.433,18.433,0,0,1,8.73,2.04,14.931,14.931,0,0,1,6.09,5.91,17.954,17.954,0,0,1,2.22,9.09A17.789,17.789,0,0,1,88.2-7.56a15.186,15.186,0,0,1-6.09,5.91A18.215,18.215,0,0,1,73.38.42a18.215,18.215,0,0,1-8.73-2.07,15.186,15.186,0,0,1-6.09-5.91,17.789,17.789,0,0,1-2.22-9.06,17.954,17.954,0,0,1,2.22-9.09,14.931,14.931,0,0,1,6.09-5.91A18.433,18.433,0,0,1,73.38-33.66Zm0,7.32a8.114,8.114,0,0,0-6,2.49q-2.46,2.49-2.46,7.23t2.46,7.23a8.114,8.114,0,0,0,6,2.49,8.114,8.114,0,0,0,6-2.49q2.46-2.49,2.46-7.23t-2.46-7.23A8.114,8.114,0,0,0,73.38-26.34Zm37.98-7.32a16.449,16.449,0,0,1,10.71,3.48,15.2,15.2,0,0,1,5.37,9.48H118.5a6.9,6.9,0,0,0-2.46-4.17,7.555,7.555,0,0,0-4.86-1.53,7.25,7.25,0,0,0-5.61,2.49q-2.25,2.49-2.25,7.29t2.25,7.29a7.25,7.25,0,0,0,5.61,2.49,7.555,7.555,0,0,0,4.86-1.53,6.9,6.9,0,0,0,2.46-4.17h8.94a15.2,15.2,0,0,1-5.37,9.48A16.449,16.449,0,0,1,111.36.42a17.693,17.693,0,0,1-8.64-2.07,14.551,14.551,0,0,1-5.88-5.91,18.6,18.6,0,0,1-2.1-9.06,18.776,18.776,0,0,1,2.1-9.09,14.313,14.313,0,0,1,5.88-5.91A17.9,17.9,0,0,1,111.36-33.66ZM152.88,0,141.9-14.52V0h-8.46V-44.4h8.46v24.96l10.92-13.8h10.02L148.86-16.68,163.2,0Zm25.86-33.66q6.06,0,9.72,3.06a13.252,13.252,0,0,1,4.56,8.16H185.1a6.585,6.585,0,0,0-2.16-3.84,6.494,6.494,0,0,0-4.38-1.44,5.034,5.034,0,0,0-3.36,1.02,3.435,3.435,0,0,0-1.2,2.76,2.806,2.806,0,0,0,.96,2.22,6.915,6.915,0,0,0,2.4,1.32q1.44.48,4.14,1.14a42.576,42.576,0,0,1,6.15,1.77,10.176,10.176,0,0,1,4.08,2.94,8.1,8.1,0,0,1,1.71,5.43,8.388,8.388,0,0,1-3.33,6.9Q186.78.42,181.14.42q-6.48,0-10.38-2.91a12.233,12.233,0,0,1-4.74-8.31h8.1a5.474,5.474,0,0,0,2.16,3.87,7.833,7.833,0,0,0,4.86,1.41,4.7,4.7,0,0,0,3.3-1.05,3.54,3.54,0,0,0,1.14-2.73,3.015,3.015,0,0,0-.99-2.34,6.683,6.683,0,0,0-2.46-1.38q-1.47-.48-4.17-1.14a47,47,0,0,1-6.03-1.71,9.628,9.628,0,0,1-3.96-2.79,7.839,7.839,0,0,1-1.65-5.28,8.644,8.644,0,0,1,3.3-7.02Q172.92-33.66,178.74-33.66Zm35.94,0a16.449,16.449,0,0,1,10.71,3.48,15.2,15.2,0,0,1,5.37,9.48h-8.94a6.9,6.9,0,0,0-2.46-4.17,7.555,7.555,0,0,0-4.86-1.53,7.25,7.25,0,0,0-5.61,2.49q-2.25,2.49-2.25,7.29t2.25,7.29a7.25,7.25,0,0,0,5.61,2.49,7.555,7.555,0,0,0,4.86-1.53,6.9,6.9,0,0,0,2.46-4.17h8.94a15.2,15.2,0,0,1-5.37,9.48A16.449,16.449,0,0,1,214.68.42a17.693,17.693,0,0,1-8.64-2.07,14.551,14.551,0,0,1-5.88-5.91,18.6,18.6,0,0,1-2.1-9.06,18.776,18.776,0,0,1,2.1-9.09,14.313,14.313,0,0,1,5.88-5.91A17.9,17.9,0,0,1,214.68-33.66Zm35.1,0a12.774,12.774,0,0,1,7.2,1.98,10.784,10.784,0,0,1,4.26,5.34v-6.9h8.4V0h-8.4V-6.96a10.943,10.943,0,0,1-4.26,5.37,12.633,12.633,0,0,1-7.2,2.01,14.278,14.278,0,0,1-7.56-2.04,13.782,13.782,0,0,1-5.25-5.91,20.5,20.5,0,0,1-1.89-9.09,20.5,20.5,0,0,1,1.89-9.09,13.782,13.782,0,0,1,5.25-5.91A14.278,14.278,0,0,1,249.78-33.66Zm2.64,7.38a8.275,8.275,0,0,0-6.36,2.58,9.988,9.988,0,0,0-2.4,7.08,9.878,9.878,0,0,0,2.4,7.05,8.324,8.324,0,0,0,6.36,2.55,8.37,8.37,0,0,0,6.33-2.61,9.706,9.706,0,0,0,2.49-6.99,9.79,9.79,0,0,0-2.49-7.05A8.37,8.37,0,0,0,252.42-26.28Zm44.7-7.44a11.77,11.77,0,0,1,9.18,3.78q3.42,3.78,3.42,10.62V0h-8.4V-18.36a8.68,8.68,0,0,0-2.04-6.15,7.253,7.253,0,0,0-5.58-2.19,7.462,7.462,0,0,0-5.76,2.34q-2.16,2.34-2.16,6.72V0h-8.46V-33.24h8.46v6.66a10.591,10.591,0,0,1,4.35-5.25A12.931,12.931,0,0,1,297.12-33.72Z" transform="translate(377.125 302.009)" fill="#212529"/>
    <g id="symbol" transform="translate(22 9)">
      <g id="avatar" transform="translate(230.661 228.009)">
        <rect id="box" width="98" height="97" transform="translate(-6.207 7.324) rotate(-7)" fill="#212529" opacity="0.4"/>
        <rect id="box-2" data-name="box" width="98" height="97" transform="translate(8.339 -5.009)" fill="#212529"/>
        <path id="b" d="M23.1-33.48a14.659,14.659,0,0,1,7.71,2.04,13.942,13.942,0,0,1,5.31,5.88,19.89,19.89,0,0,1,1.92,9A20.034,20.034,0,0,1,36.12-7.5a13.942,13.942,0,0,1-5.31,5.88A14.659,14.659,0,0,1,23.1.42,13.078,13.078,0,0,1,15.42-1.8a11.61,11.61,0,0,1-4.44-5.88V0H4.14V-44.4h6.84v19.02a11.61,11.61,0,0,1,4.44-5.88A13.078,13.078,0,0,1,23.1-33.48Zm-2.1,6a9.934,9.934,0,0,0-5.16,1.35,9.542,9.542,0,0,0-3.6,3.84,12.05,12.05,0,0,0-1.32,5.73,12,12,0,0,0,1.32,5.76,9.59,9.59,0,0,0,3.6,3.81A9.934,9.934,0,0,0,21-5.64a9.618,9.618,0,0,0,7.32-2.91q2.76-2.91,2.76-8.01a11.19,11.19,0,0,0-2.76-7.98A9.567,9.567,0,0,0,21-27.48Z" transform="translate(37.339 64.991)" fill="#fff"/>
      </g>
    </g>
  </g>
</svg>
